<?xml version="1.0" encoding="iso-8859-1"?>
<!-- Generator: Adobe Illustrator 19.0.0, SVG Export Plug-In . SVG Version: 6.00 Build 0)  -->
<svg version="1.1" id="Capa_1" xmlns="http://www.w3.org/2000/svg" xmlns:xlink="http://www.w3.org/1999/xlink" x="0px" y="0px"
	 viewBox="0 0 512 512" style="enable-background:new 0 0 512 512;" xml:space="preserve">
<g>
	<polygon style="fill:#F16645;" points="255.997,255.997 477.705,128 477.705,384.002 	"/>
	<polygon style="fill:#F16645;" points="256.003,255.997 34.295,128 34.295,384.002 	"/>
</g>
<polygon style="fill:#44C1DD;" points="256.001,0 256.001,255.997 34.297,128 "/>
<g>
	<polygon style="fill:#FFE1A0;" points="255.997,0 255.997,255.997 477.702,128 	"/>
	<polygon style="fill:#FFE1A0;" points="256.001,512 256.001,256.003 34.297,384 	"/>
</g>
<polygon style="fill:#44C1DD;" points="255.997,512 255.997,256.003 477.702,384 "/>
<polygon style="fill:#EB5836;" points="403.133,171.052 403.133,340.834 403.035,340.891 477.703,384.001 477.703,128.002 "/>
<g>
	<polygon style="fill:#EFCC86;" points="477.702,128 403.133,84.949 403.133,171.051 	"/>
	<polygon style="fill:#EFCC86;" points="255.997,425.78 181.33,468.889 187.743,472.591 255.997,511.997 	"/>
</g>
<polygon style="fill:#37B0C4;" points="256.001,511.998 477.702,384 403.033,340.892 256.001,425.778 "/>
<g>
</g>
<g>
</g>
<g>
</g>
<g>
</g>
<g>
</g>
<g>
</g>
<g>
</g>
<g>
</g>
<g>
</g>
<g>
</g>
<g>
</g>
<g>
</g>
<g>
</g>
<g>
</g>
<g>
</g>
</svg>
